<svg width="250" height="250" viewBox="0 0 250 250" fill="none" xmlns="http://www.w3.org/2000/svg">
<path d="M119.76 30.3777C123.435 28.8553 127.565 28.8553 131.24 30.3777L188.703 54.1794C192.378 55.7018 195.298 58.6219 196.821 62.2973L220.622 119.76C222.145 123.435 222.145 127.565 220.622 131.24L196.821 188.703C195.298 192.378 192.378 195.298 188.703 196.821L131.24 220.622C127.565 222.145 123.435 222.145 119.76 220.622L62.2973 196.821C58.6219 195.298 55.7018 192.378 54.1794 188.703L30.3777 131.24C28.8553 127.565 28.8553 123.435 30.3777 119.76L54.1794 62.2973C55.7018 58.6219 58.6219 55.7018 62.2973 54.1794L119.76 30.3777Z" fill="url(#paint0_linear_502_2)"/>
<path d="M65.6705 139V111.364H68.1939V126.248H68.4368L81.9311 111.364H85.2507L73.4432 124.143L85.1967 139H82.12L71.8778 125.897L68.1939 130.026V139H65.6705ZM91.504 139.472C90.2535 139.472 89.111 139.229 88.0764 138.744C87.0419 138.249 86.2187 137.538 85.607 136.612C84.9952 135.676 84.6893 134.542 84.6893 133.211C84.6893 132.185 84.8828 131.322 85.2696 130.62C85.6564 129.918 86.2052 129.343 86.9159 128.893C87.6266 128.443 88.4678 128.088 89.4393 127.827C90.4109 127.566 91.4815 127.363 92.651 127.219C93.8115 127.076 94.7921 126.95 95.5928 126.842C96.4024 126.734 97.0187 126.563 97.4415 126.329C97.8643 126.095 98.0757 125.717 98.0757 125.195V124.71C98.0757 123.297 97.6529 122.186 96.8072 121.376C95.9706 120.558 94.7651 120.148 93.1908 120.148C91.6974 120.148 90.4784 120.477 89.5338 121.134C88.5982 121.79 87.9415 122.564 87.5636 123.455L85.2831 122.631C85.7509 121.498 86.3986 120.594 87.2263 119.919C88.0539 119.235 88.9805 118.745 90.0061 118.448C91.0317 118.142 92.0707 117.989 93.1233 117.989C93.915 117.989 94.7381 118.093 95.5928 118.3C96.4564 118.507 97.2571 118.866 97.9947 119.379C98.7324 119.883 99.3307 120.589 99.7895 121.498C100.248 122.397 100.478 123.54 100.478 124.925V139H98.0757V135.721H97.9273C97.6394 136.333 97.2121 136.926 96.6453 137.502C96.0786 138.078 95.3679 138.55 94.5132 138.919C93.6586 139.288 92.6555 139.472 91.504 139.472ZM91.8278 137.273C93.1053 137.273 94.2118 136.989 95.1474 136.423C96.0831 135.856 96.8027 135.105 97.3065 134.169C97.8193 133.224 98.0757 132.185 98.0757 131.052V128.056C97.8958 128.227 97.5944 128.38 97.1716 128.515C96.7578 128.65 96.2765 128.771 95.7277 128.879C95.1879 128.978 94.6482 129.064 94.1084 129.136C93.5686 129.208 93.0828 129.271 92.651 129.325C91.4815 129.469 90.4829 129.693 89.6553 129.999C88.8276 130.305 88.1934 130.728 87.7526 131.268C87.3117 131.799 87.0913 132.482 87.0913 133.319C87.0913 134.578 87.5411 135.554 88.4408 136.247C89.3404 136.931 90.4694 137.273 91.8278 137.273ZM105.469 111.364V139H103.067V111.364H105.469ZM108.052 139V118.273H110.468V139H108.052ZM109.28 114.71C108.785 114.71 108.362 114.544 108.012 114.211C107.661 113.869 107.485 113.46 107.485 112.983C107.485 112.506 107.661 112.101 108.012 111.768C108.362 111.427 108.785 111.256 109.28 111.256C109.775 111.256 110.198 111.427 110.549 111.768C110.899 112.101 111.075 112.506 111.075 112.983C111.075 113.46 110.899 113.869 110.549 114.211C110.198 114.544 109.775 114.71 109.28 114.71ZM113.02 146.773V118.273H115.355V122.227H115.638C115.926 121.606 116.322 120.972 116.825 120.324C117.329 119.667 117.995 119.114 118.823 118.664C119.659 118.214 120.712 117.989 121.98 117.989C123.689 117.989 125.183 118.439 126.46 119.339C127.747 120.229 128.745 121.48 129.456 123.09C130.176 124.692 130.536 126.558 130.536 128.69C130.536 130.831 130.176 132.707 129.456 134.317C128.745 135.928 127.747 137.183 126.46 138.082C125.183 138.982 123.698 139.432 122.007 139.432C120.757 139.432 119.709 139.207 118.863 138.757C118.026 138.307 117.347 137.754 116.825 137.097C116.313 136.432 115.917 135.784 115.638 135.154H115.422V146.773H113.02ZM115.395 128.65C115.395 130.323 115.642 131.808 116.137 133.103C116.641 134.389 117.361 135.402 118.296 136.139C119.241 136.868 120.383 137.232 121.724 137.232C123.1 137.232 124.261 136.854 125.205 136.099C126.159 135.334 126.883 134.304 127.378 133.009C127.882 131.713 128.134 130.26 128.134 128.65C128.134 127.058 127.886 125.623 127.391 124.345C126.906 123.068 126.186 122.056 125.232 121.309C124.279 120.553 123.109 120.175 121.724 120.175C120.374 120.175 119.227 120.54 118.283 121.268C117.338 121.988 116.618 122.987 116.124 124.264C115.638 125.533 115.395 126.995 115.395 128.65ZM145.931 122.82L143.732 123.441C143.516 122.82 143.21 122.258 142.814 121.754C142.418 121.25 141.901 120.85 141.262 120.553C140.633 120.256 139.85 120.108 138.914 120.108C137.511 120.108 136.359 120.441 135.46 121.107C134.56 121.772 134.11 122.631 134.11 123.684C134.11 124.575 134.416 125.299 135.028 125.857C135.649 126.405 136.602 126.842 137.889 127.165L141.019 127.935C142.756 128.357 144.056 129.028 144.919 129.945C145.792 130.863 146.228 132.014 146.228 133.4C146.228 134.569 145.904 135.608 145.257 136.517C144.609 137.426 143.705 138.141 142.544 138.663C141.393 139.175 140.057 139.432 138.536 139.432C136.512 139.432 134.843 138.978 133.53 138.069C132.217 137.151 131.375 135.829 131.007 134.102L133.314 133.535C133.611 134.767 134.191 135.698 135.055 136.328C135.927 136.958 137.075 137.273 138.496 137.273C140.088 137.273 141.361 136.917 142.315 136.207C143.268 135.487 143.745 134.587 143.745 133.508C143.745 132.671 143.466 131.969 142.909 131.403C142.351 130.827 141.505 130.404 140.372 130.134L136.985 129.325C135.185 128.893 133.854 128.209 132.99 127.273C132.127 126.338 131.695 125.177 131.695 123.792C131.695 122.649 132.005 121.646 132.626 120.783C133.247 119.91 134.101 119.226 135.19 118.732C136.278 118.237 137.52 117.989 138.914 117.989C140.812 117.989 142.328 118.421 143.462 119.285C144.604 120.139 145.427 121.318 145.931 122.82ZM155.744 139.432C153.953 139.432 152.37 138.978 150.994 138.069C149.626 137.16 148.556 135.905 147.782 134.304C147.008 132.694 146.622 130.836 146.622 128.731C146.622 126.608 147.008 124.741 147.782 123.131C148.556 121.511 149.626 120.252 150.994 119.352C152.37 118.444 153.953 117.989 155.744 117.989C157.534 117.989 159.113 118.444 160.48 119.352C161.848 120.261 162.918 121.52 163.692 123.131C164.475 124.741 164.866 126.608 164.866 128.731C164.866 130.836 164.479 132.694 163.705 134.304C162.932 135.905 161.857 137.16 160.48 138.069C159.113 138.978 157.534 139.432 155.744 139.432ZM155.744 137.232C157.183 137.232 158.402 136.845 159.401 136.072C160.399 135.298 161.155 134.268 161.668 132.982C162.189 131.695 162.45 130.278 162.45 128.731C162.45 127.183 162.189 125.762 161.668 124.467C161.155 123.171 160.399 122.132 159.401 121.349C158.402 120.567 157.183 120.175 155.744 120.175C154.313 120.175 153.094 120.567 152.087 121.349C151.088 122.132 150.328 123.171 149.806 124.467C149.293 125.762 149.037 127.183 149.037 128.731C149.037 130.278 149.293 131.695 149.806 132.982C150.328 134.268 151.088 135.298 152.087 136.072C153.085 136.845 154.304 137.232 155.744 137.232ZM169.105 111.364L175.717 122.173H175.933L182.545 111.364H187.376L178.767 125.182L187.43 139H182.572L175.933 128.339H175.717L169.078 139H164.22L173.032 125.182L164.274 111.364H169.105Z" fill="white"/>
<defs>
<linearGradient id="paint0_linear_502_2" x1="55.5" y1="195.5" x2="194" y2="59.5" gradientUnits="userSpaceOnUse">
<stop/>
<stop offset="1" stop-color="#494949"/>
</linearGradient>
</defs>
</svg>
